<?xml version="1.0" encoding="utf-8"?>
<!-- Generator: Adobe Illustrator 26.5.0, SVG Export Plug-In . SVG Version: 6.00 Build 0)  -->
<svg version="1.1" id="Capa_1" xmlns="http://www.w3.org/2000/svg" xmlns:xlink="http://www.w3.org/1999/xlink" x="0px" y="0px"
	 viewBox="0 0 111 34" style="enable-background:new 0 0 111 34;" xml:space="preserve">
<style type="text/css">
	.st0{enable-background:new    ;}
	.st1{fill:#FFFFFF;}
</style>
<g class="st0">
	<path class="st1" d="M2.8,29V7.3h4.8V29H2.8z"/>
	<path class="st1" d="M24.2,26.3c-0.3,0.7-0.8,1.2-1.3,1.7c-0.6,0.4-1.3,0.8-2,1s-1.6,0.3-2.5,0.3c-1.2,0-2.4-0.2-3.6-0.6
		c-1.2-0.4-2.4-1-3.5-1.9l2-3.1c0.9,0.7,1.8,1.2,2.7,1.5c0.9,0.3,1.7,0.5,2.5,0.5c0.7,0,1.2-0.1,1.5-0.3c0.3-0.2,0.5-0.5,0.5-0.9
		v-0.1c0-0.2-0.1-0.5-0.3-0.7c-0.2-0.2-0.4-0.3-0.8-0.5c-0.3-0.1-0.7-0.3-1.1-0.4s-0.8-0.3-1.3-0.4c-0.6-0.2-1.2-0.4-1.8-0.6
		c-0.6-0.2-1.1-0.5-1.6-0.9c-0.5-0.4-0.9-0.9-1.2-1.4c-0.3-0.6-0.4-1.2-0.4-2v-0.1c0-0.8,0.2-1.6,0.5-2.2c0.3-0.7,0.8-1.2,1.3-1.7
		c0.5-0.5,1.2-0.8,1.9-1c0.7-0.2,1.5-0.3,2.4-0.3c1.1,0,2.1,0.2,3.2,0.5c1.1,0.3,2.1,0.8,3,1.4l-1.8,3.3c-0.8-0.5-1.6-0.9-2.4-1.1
		c-0.8-0.3-1.5-0.4-2.1-0.4c-0.6,0-1,0.1-1.3,0.3c-0.3,0.2-0.4,0.5-0.4,0.8V17c0,0.2,0.1,0.4,0.3,0.6c0.2,0.2,0.4,0.3,0.7,0.5
		c0.3,0.2,0.7,0.3,1.1,0.5c0.4,0.1,0.8,0.3,1.3,0.4c0.6,0.2,1.2,0.4,1.8,0.7c0.6,0.3,1.1,0.6,1.6,0.9c0.5,0.4,0.9,0.8,1.2,1.4
		c0.3,0.5,0.5,1.2,0.5,2v0.1C24.7,24.9,24.5,25.7,24.2,26.3z"/>
	<path class="st1" d="M44.6,24.1c-0.5,1-1.1,2-1.9,2.7s-1.8,1.4-2.9,1.9c-1.1,0.5-2.3,0.7-3.6,0.7c-1.3,0-2.5-0.2-3.6-0.7
		c-1.1-0.4-2-1.1-2.8-1.8c-0.8-0.8-1.4-1.7-1.9-2.7c-0.5-1-0.7-2.2-0.7-3.4v-0.1c0-1.2,0.2-2.3,0.7-3.4c0.5-1,1.1-2,1.9-2.7
		s1.8-1.4,2.9-1.9c1.1-0.5,2.3-0.7,3.6-0.7c1.3,0,2.5,0.2,3.6,0.7c1.1,0.4,2,1.1,2.8,1.8c0.8,0.8,1.4,1.7,1.9,2.7
		c0.5,1,0.7,2.2,0.7,3.4v0.1C45.3,21.9,45,23,44.6,24.1z M40.6,20.7c0-0.6-0.1-1.2-0.3-1.8s-0.5-1-0.9-1.5s-0.9-0.8-1.4-1
		c-0.5-0.2-1.1-0.4-1.8-0.4c-0.7,0-1.3,0.1-1.8,0.4c-0.5,0.2-1,0.6-1.3,1c-0.4,0.4-0.7,0.9-0.9,1.4c-0.2,0.5-0.3,1.1-0.3,1.8v0.1
		c0,0.6,0.1,1.2,0.3,1.8c0.2,0.5,0.5,1,0.9,1.5c0.4,0.4,0.9,0.8,1.4,1c0.5,0.2,1.1,0.4,1.8,0.4c0.7,0,1.3-0.1,1.8-0.4
		c0.5-0.2,1-0.6,1.3-1c0.4-0.4,0.7-0.9,0.9-1.4C40.5,22,40.6,21.4,40.6,20.7L40.6,20.7z"/>
	<path class="st1" d="M56.4,29c-0.6,0.2-1.3,0.3-2.1,0.3c-0.7,0-1.4-0.1-2-0.2c-0.6-0.2-1.1-0.4-1.5-0.8c-0.4-0.4-0.8-0.9-1-1.5
		c-0.2-0.6-0.4-1.4-0.4-2.4v-7.9h-2v-4h2V8.1h4.7v4.2h3.9v4h-3.9v7.1c0,1.1,0.5,1.6,1.5,1.6c0.8,0,1.6-0.2,2.3-0.6v3.8
		C57.5,28.6,57,28.8,56.4,29z"/>
	<path class="st1" d="M61.6,10.6V6.4h5v4.2H61.6z M61.8,29V12.4h4.7V29H61.8z"/>
	<path class="st1" d="M87.7,24.4c-0.4,1.1-1,2-1.7,2.7c-0.7,0.7-1.5,1.3-2.4,1.7c-0.9,0.4-1.9,0.6-2.9,0.6c-1.3,0-2.3-0.2-3.1-0.7
		c-0.8-0.5-1.5-1.1-2.1-1.7V34h-4.7V12.4h4.7v2.4c0.6-0.8,1.3-1.4,2.1-1.9c0.8-0.5,1.8-0.8,3.1-0.8c1,0,1.9,0.2,2.8,0.6
		c0.9,0.4,1.7,0.9,2.4,1.7c0.7,0.7,1.3,1.6,1.7,2.7s0.6,2.3,0.6,3.7v0.1C88.3,22.1,88.1,23.3,87.7,24.4z M83.6,20.7
		c0-0.7-0.1-1.3-0.3-1.9c-0.2-0.6-0.5-1.1-0.9-1.5c-0.4-0.4-0.8-0.7-1.3-0.9c-0.5-0.2-1-0.3-1.6-0.3s-1.1,0.1-1.6,0.3
		c-0.5,0.2-0.9,0.5-1.3,0.9c-0.4,0.4-0.7,0.9-0.9,1.5c-0.2,0.6-0.3,1.2-0.3,1.9v0.1c0,0.7,0.1,1.3,0.3,1.9s0.5,1.1,0.9,1.5
		c0.4,0.4,0.8,0.7,1.3,0.9s1,0.3,1.6,0.3s1.1-0.1,1.6-0.3s0.9-0.5,1.3-0.9c0.4-0.4,0.7-0.9,0.9-1.5C83.5,22.1,83.6,21.4,83.6,20.7
		L83.6,20.7z"/>
	<path class="st1" d="M108.3,24.1c-0.5,1-1.1,2-1.9,2.7c-0.8,0.8-1.8,1.4-2.9,1.9c-1.1,0.5-2.3,0.7-3.6,0.7c-1.3,0-2.5-0.2-3.6-0.7
		c-1.1-0.4-2-1.1-2.8-1.8c-0.8-0.8-1.4-1.7-1.9-2.7c-0.5-1-0.7-2.2-0.7-3.4v-0.1c0-1.2,0.2-2.3,0.7-3.4c0.5-1,1.1-2,1.9-2.7
		c0.8-0.8,1.8-1.4,2.9-1.9c1.1-0.5,2.3-0.7,3.6-0.7c1.3,0,2.5,0.2,3.6,0.7c1.1,0.4,2,1.1,2.8,1.8c0.8,0.8,1.4,1.7,1.9,2.7
		c0.5,1,0.7,2.2,0.7,3.4v0.1C109,21.9,108.8,23,108.3,24.1z M104.3,20.7c0-0.6-0.1-1.2-0.3-1.8s-0.5-1-0.9-1.5s-0.9-0.8-1.4-1
		s-1.1-0.4-1.8-0.4c-0.7,0-1.3,0.1-1.8,0.4c-0.5,0.2-1,0.6-1.3,1c-0.4,0.4-0.7,0.9-0.9,1.4c-0.2,0.5-0.3,1.1-0.3,1.8v0.1
		c0,0.6,0.1,1.2,0.3,1.8c0.2,0.5,0.5,1,0.9,1.5s0.9,0.8,1.4,1c0.5,0.2,1.1,0.4,1.8,0.4c0.7,0,1.3-0.1,1.8-0.4c0.5-0.2,1-0.6,1.3-1
		c0.4-0.4,0.7-0.9,0.9-1.4C104.2,22,104.3,21.4,104.3,20.7L104.3,20.7z"/>
</g>
</svg>
