<?xml version="1.0" encoding="utf-8"?>
<!-- Generator: Adobe Illustrator 26.5.0, SVG Export Plug-In . SVG Version: 6.00 Build 0)  -->
<svg version="1.1" id="Capa_1" xmlns="http://www.w3.org/2000/svg" xmlns:xlink="http://www.w3.org/1999/xlink" x="0px" y="0px"
	 viewBox="0 0 159 34" style="enable-background:new 0 0 159 34;" xml:space="preserve">
<style type="text/css">
	.st0{enable-background:new    ;}
	.st1{fill:#FFFFFF;}
</style>
<g class="st0">
	<path class="st1" d="M12.4,11.7V29H7.7V11.7H1.1V7.3h18v4.4H12.4z"/>
	<path class="st1" d="M32.6,29v-2.4c-0.3,0.4-0.6,0.7-0.9,1c-0.3,0.3-0.7,0.6-1.1,0.9c-0.4,0.2-0.8,0.4-1.3,0.6
		c-0.5,0.1-1,0.2-1.6,0.2c-1.8,0-3.2-0.5-4.2-1.6c-1-1.1-1.5-2.6-1.5-4.5V12.4h4.7v9.2c0,1.1,0.2,2,0.7,2.5c0.5,0.6,1.2,0.8,2.1,0.8
		c0.9,0,1.6-0.3,2.2-0.8c0.5-0.6,0.8-1.4,0.8-2.5v-9.2h4.7V29H32.6z"/>
	<path class="st1" d="M67.8,18.2c-0.5,1-1.1,1.7-1.9,2.4c-0.8,0.6-1.7,1.1-2.8,1.4c-1.1,0.3-2.2,0.5-3.4,0.5h-3.6V29h-4.8V7.3h8.9
		c1.3,0,2.5,0.2,3.5,0.5s1.9,0.9,2.6,1.5c0.7,0.7,1.3,1.5,1.6,2.4c0.4,0.9,0.6,1.9,0.6,3.1v0.1C68.5,16.1,68.3,17.2,67.8,18.2z
		 M63.6,14.9c0-1.1-0.3-1.9-1-2.4c-0.7-0.6-1.6-0.8-2.8-0.8h-3.7v6.6h3.8c1.2,0,2.1-0.3,2.8-0.9C63.3,16.7,63.6,15.9,63.6,14.9
		L63.6,14.9z"/>
	<path class="st1" d="M81.3,17c-1.6,0-2.8,0.5-3.7,1.4c-0.9,1-1.3,2.4-1.3,4.4V29h-4.7V12.4h4.7v3.3c0.5-1.1,1.1-2,2-2.7
		c0.8-0.7,1.9-1,3.3-0.9V17H81.3z"/>
	<path class="st1" d="M94.9,29v-2.4c-0.3,0.4-0.6,0.7-0.9,1c-0.3,0.3-0.7,0.6-1.1,0.9s-0.8,0.4-1.3,0.6c-0.5,0.1-1,0.2-1.6,0.2
		c-1.8,0-3.2-0.5-4.2-1.6c-1-1.1-1.5-2.6-1.5-4.5V12.4h4.7v9.2c0,1.1,0.2,2,0.7,2.5c0.5,0.6,1.2,0.8,2.1,0.8c0.9,0,1.6-0.3,2.2-0.8
		c0.5-0.6,0.8-1.4,0.8-2.5v-9.2h4.7V29H94.9z"/>
	<path class="st1" d="M114.1,11.7V29h-4.8V11.7h-6.6V7.3h18v4.4H114.1z"/>
	<path class="st1" d="M139.4,21.7c0,0.2,0,0.4,0,0.6h-11.6c0.2,1.1,0.7,1.9,1.4,2.4s1.6,0.8,2.7,0.8c0.8,0,1.5-0.1,2.1-0.4
		c0.6-0.3,1.3-0.7,1.9-1.3l2.7,2.4c-0.8,1-1.7,1.7-2.9,2.3c-1.1,0.5-2.4,0.8-3.9,0.8c-1.2,0-2.4-0.2-3.5-0.6s-2-1-2.8-1.8
		s-1.4-1.7-1.8-2.7c-0.4-1-0.7-2.2-0.7-3.5v-0.1c0-1.2,0.2-2.3,0.6-3.3c0.4-1.1,1-2,1.7-2.8c0.7-0.8,1.6-1.4,2.6-1.9
		c1-0.5,2.1-0.7,3.3-0.7c1.4,0,2.6,0.2,3.6,0.7c1,0.5,1.9,1.2,2.5,2s1.2,1.8,1.5,2.9c0.3,1.1,0.5,2.2,0.5,3.4v0.1
		C139.4,21.4,139.4,21.6,139.4,21.7z M133.7,16.8c-0.6-0.7-1.4-1-2.4-1s-1.8,0.3-2.4,1s-1,1.5-1.2,2.6h7.1
		C134.6,18.3,134.3,17.5,133.7,16.8z"/>
	<path class="st1" d="M154.8,28.5c-1,0.6-2.4,0.9-4,0.9c-1.2,0-2.4-0.2-3.5-0.7c-1.1-0.5-2-1.1-2.7-1.8c-0.8-0.8-1.4-1.7-1.8-2.7
		c-0.4-1-0.7-2.2-0.7-3.3v-0.1c0-1.2,0.2-2.3,0.7-3.3c0.4-1.1,1-2,1.8-2.8c0.8-0.8,1.7-1.4,2.7-1.9c1.1-0.5,2.2-0.7,3.5-0.7
		c1.6,0,2.9,0.2,3.9,0.7s1.9,1.2,2.7,2l-2.9,3.1c-0.5-0.6-1.1-1-1.7-1.3c-0.6-0.3-1.3-0.5-2.1-0.5c-0.6,0-1.1,0.1-1.6,0.4
		c-0.5,0.2-0.9,0.6-1.3,1c-0.4,0.4-0.6,0.9-0.8,1.4c-0.2,0.5-0.3,1.1-0.3,1.8v0.1c0,0.6,0.1,1.2,0.3,1.8c0.2,0.6,0.5,1,0.9,1.5
		c0.4,0.4,0.8,0.7,1.3,1c0.5,0.2,1.1,0.4,1.7,0.4c0.8,0,1.5-0.2,2.1-0.5c0.6-0.3,1.2-0.7,1.8-1.3l2.8,2.8
		C156.7,27.2,155.8,28,154.8,28.5z"/>
</g>
</svg>
